<svg xmlns="http://www.w3.org/2000/svg" aria-hidden="true" style="position:absolute;width:0;height:0;overflow:hidden"><defs><symbol id="icon-arrow-down" viewBox="0 0 32 32"><path fill="none" stroke="#ff9f1c" stroke-linecap="round" stroke-linejoin="round" stroke-width="1.454" d="m16 25.333-8-8m8 8 8-8m-8 8V6.666" style="stroke:var(--color1, #ff9f1c)"/></symbol><symbol id="icon-arrow-left" viewBox="0 0 32 32"><path fill="none" stroke="#ff9f1c" stroke-linecap="round" stroke-linejoin="round" stroke-width="1.454" d="m6.667 16 8-8m-8 8 8 8m-8-8h18.667" style="stroke:var(--color1, #ff9f1c)"/></symbol><symbol id="icon-arrow-right" viewBox="0 0 32 32"><path fill="none" stroke="#ff9f1c" stroke-linecap="round" stroke-linejoin="round" stroke-width="1.454" d="m25.333 16-8 8m8-8-8-8m8 8H6.666" style="stroke:var(--color1, #ff9f1c)"/></symbol><symbol id="icon-close" viewBox="0 0 32 32"><path fill="#4fd1ff" d="m8.533 25.333-1.867-1.867 7.467-7.467-7.467-7.467 1.867-1.867L16 14.132l7.467-7.467 1.867 1.867-7.467 7.467 7.467 7.467-1.867 1.867L16 17.866z" style="fill:var(--color2, #4fd1ff)"/></symbol><symbol id="icon-menu" viewBox="0 0 32 32"><path fill="#4fd1ff" d="M4 24v-2h24v2zm0-7v-2h24v2zm0-7V8h24v2z" style="fill:var(--color2, #4fd1ff)"/></symbol></defs></svg>